<?xml version="1.0" encoding="UTF-8"?>
<svg id="Layer_1" xmlns="http://www.w3.org/2000/svg" version="1.1" viewBox="0 0 216 216">
  <!-- Generator: Adobe Illustrator 29.2.1, SVG Export Plug-In . SVG Version: 2.1.0 Build 116)  -->
  <defs>
    <style>
      .st0 {
        fill: #231f20;
      }

      .st1 {
        fill: #fff;
      }
    </style>
  </defs>
  <rect class="st1" x=".04" y=".19" width="216.01" height="215.66" rx="26.6" ry="26.6"/>
  <path class="st0" d="M40.38,188.68c-7.68,0-14-2.75-18.97-8.24-4.97-5.49-7.46-12.32-7.46-20.47V38.64c0-8.32,2.49-15.19,7.46-20.6,4.97-5.41,11.29-8.11,18.97-8.11h134.47c7.67,0,14,2.71,18.97,8.11,4.97,5.41,7.46,12.28,7.46,20.6,0,5.17,0,10.33,0,15.5,0,4.6,0,9.21,0,13.81,0,3.16,1.29,9.76-.9,12.22-.75.85-1.85,1.29-2.91,1.67-8.45,2.95-17.59,3.02-26.54,3.06-8.32.04-16.64.07-24.96.11-5.97.03-12,.04-17.81-1.29-1.16-.27-2.39-.64-3.1-1.6-.77-1.04-.7-2.45-.63-3.74.2-4.1-.02-8.22-.67-12.28-.51-3.21-.45-6.73-1.56-9.79-1.99-5.47-7.38-9.26-13.09-10.39s-11.68.07-17.08,2.25c-3.25,1.31-6.39,2.99-9.01,5.33-8.24,7.37-6,17.78-5.71,27.59.35,11.67-.03,23.34-.42,35-.15,4.51-.11,5.25-.31,9.73-.06,1.43-.1,6.44.18,7.89.37,1.98,1.58,3.85,2.95,5.28,1.94,2.03,4.44,3.45,6.97,4.67,7.55,3.63,16.29,5.77,24.33,3.41,2.78-.82,5.4-2.15,7.8-3.77,1.57-1.06,3.09-2.27,4.08-3.88,1.35-2.19,1.6-4.88,1.62-7.46.02-2.87-.16-5.75-.33-8.61-.21-3.47-.12-6.78-.08-10.17.02-1.44,1.19-2.6,2.63-2.6h71.94c1.45,0,2.63,1.18,2.63,2.63v46.8c0,8.16-2.49,14.98-7.46,20.47-4.97,5.49-11.29,8.24-18.97,8.24H40.38Z"/>
  <g>
    <path class="st0" d="M136.15,107.93l5.23-20.13h12.01l5.23,20.13h-8.97l-.82-3.23h-4.84l-.84,3.23h-7ZM145,100.11h2.84l-1.32-5.51h-.14l-1.38,5.51Z"/>
    <path class="st0" d="M159.34,107.93v-20.13h9.76l3.51,5.88h.2l3.49-5.88h8.58v20.13h-8.18v-8.1h-.2l-4.84,8.1h-.73l-4.84-8.13h-.2v8.13h-6.55Z"/>
  </g>
  <g>
    <path class="st0" d="M44.35,205.27c-.41,0-.71-.15-.89-.46-.19-.31-.22-.69-.09-1.14l.32-1.23h4.38l-.08.32c-.06.22-.03.4.1.52.13.13.39.19.79.19s.7-.07.88-.2c.18-.13.29-.3.35-.49.06-.21.05-.38-.03-.49s-.27-.18-.58-.21l-4.15-.37c-.42-.04-.72-.21-.91-.5-.19-.29-.23-.66-.11-1.12l.64-2.39c.13-.46.37-.84.72-1.14.35-.3.73-.45,1.14-.45h8.08c.41,0,.71.15.89.45.19.3.22.68.09,1.14l-.32,1.23h-4.38l.08-.32c.07-.22.04-.4-.09-.52s-.39-.19-.79-.19-.7.06-.88.19c-.18.12-.29.28-.34.48-.05.19-.04.34.02.45.06.11.22.18.47.21l4.29.37c.43.03.73.2.91.5.18.3.21.69.08,1.17l-.64,2.4c-.13.45-.36.83-.71,1.14s-.73.46-1.14.46h-8.08Z"/>
    <path class="st0" d="M162.4,206.15c-.41,0-.71-.15-.89-.46-.19-.31-.22-.69-.09-1.14l.32-1.23h4.38l-.08.32c-.06.22-.03.4.1.52.13.13.39.19.79.19s.7-.07.88-.2c.18-.13.29-.3.35-.49.06-.21.05-.38-.03-.49s-.27-.18-.58-.21l-4.15-.37c-.42-.04-.72-.21-.91-.5-.19-.29-.23-.66-.11-1.12l.64-2.39c.13-.46.37-.84.72-1.14.35-.3.73-.45,1.14-.45h8.08c.41,0,.71.15.89.45.19.3.22.68.09,1.14l-.32,1.23h-4.38l.08-.32c.07-.22.04-.4-.09-.52s-.39-.19-.79-.19-.7.06-.88.19c-.18.12-.29.28-.34.48-.05.19-.04.34.02.45.06.11.22.18.47.21l4.29.37c.43.03.73.2.91.5.18.3.21.69.08,1.17l-.64,2.4c-.13.45-.36.83-.71,1.14s-.73.46-1.14.46h-8.08Z"/>
    <path class="st0" d="M64.53,205.69l1.73-6.45h-2.91l.73-2.7h10.3l-.73,2.7h-2.91l-1.73,6.45h-4.47Z"/>
    <path class="st0" d="M82.96,205.78c-.41,0-.71-.15-.89-.46-.19-.31-.22-.69-.09-1.14l2.02-7.55h4.46l-1.57,5.85c-.09.38-.05.64.14.8s.48.24.87.24.72-.08.98-.24c.26-.16.44-.42.54-.8l1.57-5.87h4.09l-2.02,7.55c-.13.45-.37.83-.72,1.14-.35.31-.73.46-1.14.46h-8.24Z"/>
    <path class="st0" d="M103.01,205.87l2.45-9.15h9.65c.42,0,.72.15.9.45.18.3.21.68.08,1.14l-1.58,5.96c-.13.45-.36.83-.71,1.14-.35.31-.73.46-1.14.46h-9.65ZM108.01,203.59h1.29c.15,0,.29-.03.42-.08.14-.05.27-.16.41-.32.14-.16.27-.39.41-.7s.27-.72.41-1.23c.17-.67.25-1.16.25-1.48s-.07-.53-.2-.64c-.13-.11-.29-.16-.49-.16h-1.28l-1.23,4.6Z"/>
    <path class="st0" d="M125,206.02l2.45-9.15h4.49l-2.45,9.15h-4.49Z"/>
    <path class="st0" d="M141.28,206.21c-.41,0-.71-.15-.89-.46s-.22-.69-.09-1.14l1.58-5.96c.13-.46.37-.84.72-1.14.35-.3.73-.45,1.14-.45h8.44c.41,0,.71.15.89.45.19.3.22.68.09,1.14l-1.58,5.96c-.13.45-.37.83-.72,1.14-.35.31-.73.46-1.14.46h-8.44ZM146.08,204.07c.36,0,.66-.06.89-.18.24-.12.4-.33.47-.63l.87-3.23c.08-.3.03-.51-.15-.64-.17-.13-.45-.19-.81-.19s-.66.06-.9.19c-.24.12-.4.33-.48.63l-.87,3.23c-.08.3-.03.51.15.64.18.13.45.19.82.19Z"/>
    <circle class="st0" cx="59.25" cy="202.03" r="1.49"/>
    <circle class="st0" cx="157.11" cy="201.97" r="1.49"/>
    <circle class="st0" cx="77.56" cy="202.46" r="1.49"/>
    <circle class="st0" cx="99.4" cy="201.64" r="1.49"/>
    <circle class="st0" cx="120.89" cy="201.81" r="1.49"/>
    <circle class="st0" cx="136.41" cy="201.97" r="1.49"/>
  </g>
  <rect class="st0" x="810.1" y=".09" width="215.82" height="216.09" rx="26.6" ry="26.6"/>
  <g>
    <path class="st1" d="M863.23,106.37c-.55-.32-.99-.79-1.3-1.41s-.47-1.36-.47-2.22.16-1.59.48-2.21.76-1.09,1.31-1.42c.56-.32,1.19-.48,1.9-.48.62,0,1.18.12,1.66.36.48.24.87.57,1.16,1,.29.43.48.93.57,1.5h-1.76c-.1-.5-.29-.9-.56-1.21-.27-.31-.63-.46-1.08-.46-.38,0-.7.12-.98.36-.27.24-.48.58-.62,1.02s-.21.95-.21,1.54.07,1.1.22,1.54.35.78.62,1.02c.27.24.59.36.97.36.44,0,.8-.15,1.09-.46.29-.31.49-.71.6-1.2l1.59.35c-.22.78-.61,1.4-1.17,1.84-.56.45-1.28.67-2.14.67-.7,0-1.33-.16-1.89-.48Z"/>
    <path class="st1" d="M870.42,106.5c-.43-.23-.76-.56-1-1s-.35-.95-.35-1.54.12-1.11.35-1.54.57-.77,1-1c.43-.23.92-.35,1.48-.35s1.04.12,1.46.35.76.56,1,1,.36.95.36,1.54-.12,1.11-.36,1.54-.57.77-1,1-.92.35-1.46.35-1.05-.12-1.48-.35ZM872.67,105.33c.17-.33.25-.79.25-1.37s-.08-1.04-.25-1.37c-.17-.33-.43-.49-.78-.49s-.63.16-.79.49c-.17.33-.25.79-.25,1.37s.08,1.05.25,1.37c.17.33.43.49.79.49s.62-.16.78-.49Z"/>
    <path class="st1" d="M875.43,101.19h1.69v1.14l-.07-.05c.17-.38.39-.68.67-.88.28-.2.58-.31.9-.31h.24v1.42c-.13-.04-.29-.06-.49-.06-.25,0-.49.06-.7.19-.21.13-.39.32-.53.58v3.5h-1.72v-5.54Z"/>
    <path class="st1" d="M879.04,101.19h1.81l1.42,4.87h-.62l1.46-4.87h1.41l-1.93,5.54h-1.65l-1.89-5.54Z"/>
    <path class="st1" d="M884.99,106.38c-.29-.28-.43-.66-.43-1.13,0-.56.19-.98.57-1.27.38-.29.92-.48,1.62-.56.33-.04.68-.07,1.05-.08v-.45c0-.27-.06-.47-.17-.6-.11-.13-.28-.2-.49-.2s-.4.07-.55.21c-.15.14-.26.33-.34.56l-1.43-.26c.15-.49.44-.86.86-1.12.42-.26.93-.39,1.55-.39.69,0,1.24.16,1.64.48.4.32.6.79.6,1.42v2.18c0,.41.04.93.1,1.56h-1.61c-.05-.35-.09-.68-.1-.99h.09c-.17.31-.41.56-.71.76s-.66.3-1.07.3c-.49,0-.87-.14-1.16-.42ZM887.36,105.61c.18-.11.32-.26.43-.44v-.95c-.23.02-.47.04-.71.07-.29.05-.52.14-.68.28-.16.14-.24.33-.24.55,0,.2.06.36.17.48.12.12.27.18.46.18s.38-.06.55-.17Z"/>
    <path class="st1" d="M890.4,98.75h1.72v7.99h-1.72v-7.99Z"/>
    <path class="st1" d="M893.09,98.75h1.72v7.99h-1.72v-7.99Z"/>
    <path class="st1" d="M895.76,99.05h1.77v1.5h-1.77v-1.5ZM895.79,101.19h1.72v5.54h-1.72v-5.54Z"/>
    <path class="st1" d="M899.1,106.5c-.43-.23-.72-.57-.86-1.01l1.27-.31c.09.25.24.44.45.57.21.13.46.19.75.19.27,0,.48-.05.64-.16.15-.11.23-.24.23-.42s-.08-.31-.23-.4-.45-.19-.88-.28c-.74-.14-1.28-.35-1.61-.63-.33-.28-.5-.68-.5-1.19,0-.35.1-.67.29-.94.19-.27.46-.49.81-.63.35-.15.74-.22,1.17-.22.54,0,1.01.11,1.42.33s.68.53.82.93l-1.25.31c-.09-.21-.22-.37-.39-.49-.17-.11-.38-.17-.63-.17s-.44.05-.58.15c-.14.1-.21.23-.21.39s.08.29.24.38c.16.09.47.18.91.27.73.16,1.26.37,1.59.65.32.27.49.67.49,1.2,0,.56-.22,1-.65,1.34-.44.34-1,.51-1.71.51-.62,0-1.15-.12-1.58-.35Z"/>
    <path class="st1" d="M904.47,106.54l.14.19h-.89v-1.68h1.62v1.12c0,.2-.02.36-.06.48-.04.11-.12.28-.25.51l-.61,1.07h-.83c.35-.64.65-1.2.89-1.68Z"/>
    <path class="st1" d="M909.69,106.37c-.58-.32-1.02-.79-1.34-1.41s-.48-1.36-.48-2.22.16-1.6.48-2.22.77-1.09,1.34-1.41c.57-.32,1.23-.48,1.97-.48s1.4.16,1.97.48c.57.32,1.02.79,1.34,1.41s.49,1.36.49,2.22-.16,1.6-.49,2.22-.77,1.09-1.34,1.41c-.57.32-1.23.48-1.97.48s-1.4-.16-1.97-.48ZM912.71,105.29c.29-.24.5-.58.65-1.02s.23-.95.23-1.54-.08-1.1-.23-1.54-.37-.78-.65-1.02c-.29-.24-.63-.36-1.04-.36s-.76.12-1.04.36c-.29.24-.5.58-.65,1.02s-.23.95-.23,1.54.08,1.1.23,1.54.37.78.65,1.02c.29.24.63.36,1.04.36s.76-.12,1.04-.36Z"/>
    <path class="st1" d="M916.41,98.75h3.07c.9,0,1.63.2,2.18.6.55.4.82.98.82,1.75s-.21,1.3-.64,1.7c-.43.4-1,.63-1.72.7l-.57.13h-1.35v3.1h-1.78v-7.99ZM920.38,102.1c.23-.21.35-.51.35-.9s-.12-.7-.35-.91-.57-.31-1.01-.31h-1.18v2.43h1.18c.44,0,.78-.1,1.01-.31ZM918.99,102.89h1.78l1.99,3.84h-1.96l-1.82-3.84Z"/>
  </g>
  <g>
    <path class="st1" d="M847.49,72.29c-.24,0-.41-.09-.52-.28-.1-.18-.12-.41-.05-.69l1.71-6.48c.07-.27.21-.5.41-.69.21-.18.43-.28.67-.28h4.61c.24,0,.41.09.51.28s.12.41.05.69l-.53,2.03h-2.68l.28-1.08c.04-.15.03-.25-.04-.32-.06-.06-.17-.09-.31-.09-.14,0-.25.03-.35.09-.09.06-.16.17-.2.32l-1.2,4.58c-.04.15-.03.25.04.32s.17.09.31.09.25-.03.35-.09.16-.17.2-.32l.36-1.37h-.58l.42-1.59h3.26l-1.28,4.87h-2.18l.23-.85h-.09c-.09.24-.24.44-.44.6-.2.16-.42.24-.66.24h-2.29Z"/>
    <path class="st1" d="M853.49,72.29l1.67-6.31h2.52l-.21.76h.12c.06-.22.18-.4.35-.55.17-.14.36-.22.58-.22h1.45c.22,0,.37.07.47.22.1.15.12.33.06.55l-.74,2.84h-2.41l.49-1.88c.03-.09.02-.15-.02-.2s-.12-.07-.21-.07-.17.02-.24.06c-.07.04-.11.11-.13.19l-1.21,4.59h-2.52Z"/>
    <path class="st1" d="M860.16,72.29c-.22,0-.37-.07-.46-.22s-.11-.33-.06-.55l.51-1.98c.07-.24.19-.44.37-.59.17-.15.37-.24.6-.26l2.16-.22c.12-.02.22-.05.29-.1.07-.05.13-.14.17-.26l.15-.58c.03-.12.02-.22-.02-.28s-.13-.09-.24-.09c-.11,0-.2.03-.28.09s-.13.14-.16.24l-.21.75h-2.48l.39-1.49c.06-.22.18-.4.35-.55.17-.14.37-.22.58-.22h4.25c.22,0,.37.07.47.22.1.15.11.33.05.55l-1.46,5.54h-2.5l.2-.73h-.12c-.05.2-.16.38-.33.52s-.35.21-.56.21h-1.67ZM862.62,70.98c.11,0,.2-.02.28-.07.08-.05.13-.11.15-.2l.29-1.09-.32.04c-.15.02-.26.05-.34.11-.08.06-.14.15-.17.26l-.16.63c-.02.06-.03.12,0,.17.02.05.05.09.1.11.05.02.11.04.18.04Z"/>
    <path class="st1" d="M865.21,74.14l2.15-8.15h2.51l-.21.76h.12c.06-.22.18-.4.35-.55.17-.14.36-.22.57-.22h1.63c.22,0,.37.07.47.22.1.15.12.33.06.55l-1.25,4.78c-.05.22-.17.4-.35.55-.18.15-.38.22-.6.22h-1.63c-.21,0-.36-.07-.45-.22-.09-.15-.11-.33-.05-.55h-.12l-.69,2.61h-2.51ZM868.94,70.86c.12,0,.21-.02.29-.07s.13-.11.15-.2l.76-2.88c.02-.1,0-.18-.04-.22-.05-.05-.13-.07-.25-.07s-.21.02-.28.06-.12.12-.14.22l-.76,2.88c-.02.09,0,.15.04.21.05.05.13.08.24.08Z"/>
    <path class="st1" d="M871.94,72.29l2.22-8.41h2.52l-.76,2.87h.12c.06-.22.18-.4.35-.55.17-.14.36-.22.58-.22h1.67c.22,0,.37.07.47.22.1.15.11.33.05.55l-1.46,5.54h-2.52l1.2-4.56c.02-.09,0-.16-.04-.21-.05-.05-.13-.07-.24-.07-.12,0-.21.02-.28.06-.07.04-.12.11-.14.21l-1.2,4.57h-2.52Z"/>
    <path class="st1" d="M878.26,72.29l1.67-6.31h2.63l-1.67,6.31h-2.63ZM880.04,65.55l.44-1.67h2.62l-.44,1.67h-2.62Z"/>
    <path class="st1" d="M882.16,72.29c-.22,0-.37-.07-.46-.22s-.11-.33-.06-.55l1.25-4.78c.06-.22.18-.4.35-.55.17-.14.37-.22.58-.22h4.2c.22,0,.37.07.47.22.1.15.11.33.05.55l-.52,2h-2.45l.3-1.13c.02-.09,0-.16-.04-.21-.05-.05-.13-.07-.25-.07s-.21.02-.28.06-.12.11-.14.21l-.81,3.05c-.02.09,0,.15.05.21.05.05.12.08.23.08.12,0,.21-.02.29-.07.08-.05.13-.11.15-.2l.3-1.14h2.45l-.52,2c-.05.22-.17.4-.35.55-.18.15-.38.22-.59.22h-4.2Z"/>
    <path class="st1" d="M889.01,72.29l2.22-8.41h5.38c.24,0,.41.09.51.28s.12.41.05.69l-1.71,6.48c-.07.27-.21.5-.41.69s-.43.28-.67.28h-5.38ZM892.11,70.66h.43c.06,0,.12-.02.18-.05.06-.03.13-.09.19-.16s.13-.19.2-.35.13-.36.19-.62l.75-2.83c.08-.32.13-.56.13-.73s-.02-.27-.08-.33c-.05-.05-.12-.08-.21-.08h-.42l-1.37,5.14Z"/>
    <path class="st1" d="M896.46,72.29c-.22,0-.37-.07-.46-.22s-.11-.33-.06-.55l1.25-4.78c.06-.22.18-.4.35-.55.17-.14.37-.22.58-.22h4.21c.22,0,.37.07.47.22.1.15.11.33.05.55l-.75,2.85h-3.18l-.31,1.22c-.02.1-.01.18.04.22.05.05.12.07.23.07.12,0,.21-.02.29-.07.08-.05.13-.12.16-.22l.21-.83h2.46l-.39,1.54c-.05.22-.17.4-.35.55-.18.15-.38.22-.59.22h-4.21ZM899.25,68.4h.72l.24-.92c.03-.12.02-.2-.03-.25-.05-.05-.14-.07-.25-.07-.11,0-.2.02-.27.07-.07.05-.13.13-.16.25l-.24.92Z"/>
    <path class="st1" d="M902.63,72.29c-.22,0-.37-.07-.47-.22-.1-.15-.12-.33-.06-.55l.32-1.27h2.44s-.15.58-.15.58c-.02.1-.01.18.03.23.04.06.12.08.25.08s.22-.03.3-.08c.08-.05.12-.13.14-.23l.13-.47c.02-.09.02-.16-.01-.22-.03-.06-.12-.1-.27-.11l-2.01-.15c-.22-.02-.37-.1-.46-.26s-.1-.36-.04-.61l.59-2.27c.06-.22.18-.4.35-.55.17-.14.37-.22.58-.22h4.11c.22,0,.37.07.47.22.1.15.11.33.05.55l-.32,1.27h-2.42l.15-.58c.02-.1.02-.18-.02-.23-.04-.05-.12-.08-.25-.08-.12,0-.22.03-.3.08s-.12.13-.14.23l-.12.46c-.02.09-.02.17,0,.23.03.06.11.09.26.1l1.96.16c.25.02.41.1.5.26.09.16.1.36.04.6l-.59,2.28c-.05.22-.17.4-.35.55s-.37.22-.59.22h-4.11Z"/>
    <path class="st1" d="M907.98,72.29l1.67-6.31h2.63l-1.67,6.31h-2.63ZM909.77,65.55l.44-1.67h2.62l-.44,1.67h-2.62Z"/>
    <path class="st1" d="M911.43,74.14c-.22,0-.37-.07-.47-.22s-.11-.33-.05-.56l.28-1.07h2.42l-.13.48c-.02.09,0,.17.04.22.05.05.14.08.26.08.12,0,.22-.02.3-.07s.14-.12.15-.21l.44-1.61h-.12c-.05.2-.16.36-.33.5-.17.14-.36.21-.57.21h-1.63c-.22,0-.37-.07-.47-.22-.1-.14-.12-.33-.06-.55l1.15-4.37c.06-.22.18-.4.35-.55.17-.14.37-.22.58-.22h1.54c.21,0,.36.07.46.21.1.14.11.3.05.5h.12l.2-.71h2.6l-1.94,7.38c-.06.23-.18.41-.35.56-.17.15-.37.22-.58.22h-4.22ZM914.48,70.52c.12,0,.21-.02.29-.07.08-.05.13-.12.15-.21l.68-2.6c.02-.09.01-.16-.04-.21-.05-.05-.13-.07-.24-.07s-.21.02-.28.06-.12.11-.16.21l-.68,2.6c-.02.09,0,.17.04.22.05.05.13.08.24.08Z"/>
    <path class="st1" d="M917.45,72.29l1.67-6.31h2.52l-.21.76h.12c.06-.22.18-.4.35-.55.17-.14.36-.22.58-.22h1.67c.22,0,.37.07.47.22.1.15.11.33.05.55l-1.46,5.54h-2.52l1.2-4.56c.02-.09,0-.16-.04-.21-.05-.05-.13-.07-.24-.07-.12,0-.21.02-.28.06-.07.04-.12.11-.14.21l-1.2,4.57h-2.52Z"/>
    <path class="st1" d="M924.46,72.29c-.22,0-.37-.07-.46-.22s-.11-.33-.06-.55l1.25-4.78c.06-.22.18-.4.35-.55.17-.14.37-.22.58-.22h4.21c.22,0,.37.07.47.22.1.15.11.33.05.55l-.75,2.85h-3.18l-.31,1.22c-.02.1-.01.18.04.22.05.05.12.07.23.07.12,0,.21-.02.29-.07.08-.05.13-.12.16-.22l.21-.83h2.46l-.39,1.54c-.05.22-.17.4-.35.55-.18.15-.38.22-.59.22h-4.21ZM927.25,68.4h.72l.24-.92c.03-.12.02-.2-.03-.25-.05-.05-.14-.07-.25-.07-.11,0-.2.02-.27.07-.07.05-.13.13-.16.25l-.24.92Z"/>
    <path class="st1" d="M929.95,72.29l1.67-6.31h2.52l-.21.76h.12c.06-.22.18-.4.35-.55.17-.14.36-.22.58-.22h1.45c.22,0,.37.07.47.22.1.15.12.33.06.55l-.74,2.84h-2.41l.49-1.88c.03-.09.02-.15-.02-.2s-.12-.07-.21-.07-.17.02-.24.06c-.07.04-.11.11-.13.19l-1.21,4.59h-2.52Z"/>
  </g>
  <g>
    <path class="st1" d="M849.42,56.12c-.49,0-.9-.19-1.23-.56-.32-.38-.49-.84-.49-1.39v-7.3c0-.56.16-1.03.49-1.4.32-.37.73-.56,1.23-.56h10.06c.5,0,.92.19,1.23.56.32.37.48.84.48,1.4v2.94h-5.28v-1.28c0-.35-.13-.61-.38-.77s-.6-.23-1.04-.23-.77.08-1.03.23-.38.4-.38.76v3.98c0,.37.13.63.39.78.26.16.61.23,1.05.23s.77-.08,1.02-.23.37-.41.37-.77v-1.28h5.28v2.94c0,.55-.16,1.02-.48,1.39-.32.38-.73.56-1.23.56h-10.06Z"/>
    <path class="st1" d="M863.51,56.12c-.43,0-.79-.15-1.07-.46-.28-.31-.42-.69-.42-1.15v-1.74c0-.44.13-.8.39-1.08.26-.28.6-.43,1.01-.45l5.04-.27c.23-.01.39-.07.49-.16s.15-.25.16-.45v-.02c0-.24-.08-.43-.24-.56-.16-.13-.44-.2-.84-.2-.36,0-.62.06-.79.18-.17.12-.25.28-.25.49v.41h-4.95v-1.35c0-.46.14-.84.42-1.15s.64-.46,1.07-.46h9.06c.43,0,.79.15,1.07.46.28.31.42.69.42,1.15v6.8h-4.92v-1.47h-.14c0,.42-.13.77-.39,1.05s-.59.42-.99.42h-4.12ZM867.99,54.07c.4,0,.69-.06.88-.17.18-.11.28-.27.28-.45v-.8l-1.34.08c-.3.02-.51.08-.63.19-.12.1-.19.26-.19.45,0,.14.03.26.08.37.06.11.16.19.3.25.14.06.35.09.62.09Z"/>
    <path class="st1" d="M875.1,56.12v-8.41h4.94v1.61h.15c0-.46.14-.84.42-1.15.28-.31.63-.46,1.06-.46h-.34,3.93c.43,0,.79.15,1.06.46.28.31.42.69.42,1.15h.14c0-.46.14-.84.42-1.15.28-.31.63-.46,1.06-.46h3.63c.43,0,.79.15,1.06.46.28.31.42.69.42,1.15v6.8h-4.94v-5.47c0-.22-.08-.38-.24-.49-.16-.11-.38-.16-.66-.16s-.48.05-.64.16-.24.27-.24.49v5.48h-4.95v-5.47c0-.22-.08-.38-.23-.49-.15-.11-.37-.16-.65-.16s-.5.05-.66.16c-.16.1-.24.27-.24.49v5.48h-4.94Z"/>
    <path class="st1" d="M894.49,47.04v-2.13h5.05v2.13h-5.05ZM894.51,56.12v-8.41h5.03v8.41h-5.03Z"/>
    <path class="st1" d="M900.62,56.12v-11.21h5.03v11.21h-5.03Z"/>
    <path class="st1" d="M906.73,56.12v-11.21h5.03v11.21h-5.03Z"/>
    <path class="st1" d="M914.22,56.12c-.43,0-.79-.15-1.07-.46-.28-.31-.42-.69-.42-1.15v-5.18c0-.46.14-.84.42-1.15.28-.31.64-.46,1.07-.46h9c.43,0,.79.15,1.07.46.28.31.42.69.42,1.15v3.29h-7.05v.99c0,.23.09.39.29.49s.45.15.78.15.59-.05.78-.15.29-.26.29-.49v-.44h4.92v1.35c0,.46-.14.84-.42,1.15-.28.31-.64.46-1.07.46h-9ZM917.67,50.92h2.13v-.63c0-.25-.1-.43-.29-.54-.2-.11-.46-.16-.79-.16s-.59.06-.77.16c-.19.11-.28.29-.28.54v.63Z"/>
    <path class="st1" d="M931.5,56.12l-3.7-11.21h5.97l1.11,3.51,1.14,3.6h.12l1.13-3.57,1.11-3.54h4.38l-3.69,11.21h-7.58Z"/>
    <path class="st1" d="M943.83,56.12c-.43,0-.79-.15-1.07-.46-.28-.31-.42-.69-.42-1.15v-5.18c0-.46.14-.84.42-1.15.28-.31.64-.46,1.07-.46h9c.43,0,.79.15,1.07.46.28.31.42.69.42,1.15v5.18c0,.46-.14.84-.42,1.15-.28.31-.64.46-1.07.46h-9ZM948.34,53.97c.33,0,.59-.06.78-.18.19-.12.29-.3.29-.54v-2.66c0-.25-.09-.44-.29-.56-.19-.12-.45-.18-.78-.18s-.59.06-.78.17c-.19.12-.29.3-.29.55v2.66c0,.24.09.42.29.55.19.13.45.19.78.19Z"/>
    <path class="st1" d="M956.69,56.12c-.43,0-.79-.15-1.07-.46-.28-.31-.42-.69-.42-1.15v-5.18c0-.46.14-.84.42-1.15.28-.31.64-.46,1.07-.46h9c.43,0,.79.15,1.07.46.28.31.42.69.42,1.15v3.29h-7.05v.99c0,.23.09.39.29.49s.45.15.78.15.59-.05.78-.15.29-.26.29-.49v-.44h4.92v1.35c0,.46-.14.84-.42,1.15-.28.31-.64.46-1.07.46h-9ZM960.13,50.92h2.13v-.63c0-.25-.1-.43-.29-.54-.2-.11-.46-.16-.79-.16s-.59.06-.77.16c-.19.11-.28.29-.28.54v.63Z"/>
    <path class="st1" d="M968.15,56.12v-11.21h5.03v11.21h-5.03Z"/>
    <path class="st1" d="M974.26,56.12v-11.21h4.94v5.83h.09l.99-1.17,1.6-1.85h4.06l-2.33,2.8,2.64,5.61h-5.49l-.65-1.47-.45-1.06h-.15l-.31.34v2.19h-4.94Z"/>
  </g>
  <g>
    <path class="st1" d="M862.85,117.06h1.09l1.4,4.71h-.34l1.45-4.71h.87l1.45,4.71h-.32l1.4-4.71h.86l-1.76,5.47h-.89l-1.54-5.03h.52l-1.54,5.03h-.89l-1.75-5.47Z"/>
    <path class="st1" d="M870.97,117.06h1.09l1.4,4.71h-.34l1.45-4.71h.87l1.45,4.71h-.32l1.4-4.71h.86l-1.76,5.47h-.89l-1.54-5.03h.52l-1.54,5.03h-.89l-1.75-5.47Z"/>
    <path class="st1" d="M879.1,117.06h1.09l1.4,4.71h-.34l1.45-4.71h.87l1.45,4.71h-.32l1.4-4.71h.86l-1.76,5.47h-.89l-1.54-5.03h.52l-1.54,5.03h-.89l-1.75-5.47Z"/>
    <path class="st1" d="M887.25,121.22h1.16v1.32h-1.16v-1.32Z"/>
    <path class="st1" d="M890.51,122.29c-.39-.24-.69-.57-.91-1s-.33-.93-.33-1.49.11-1.06.33-1.49c.22-.43.52-.76.91-1,.39-.24.83-.36,1.34-.36.64,0,1.16.18,1.56.53.4.35.64.81.73,1.39h-1.02c-.08-.36-.23-.65-.45-.88-.21-.22-.49-.33-.83-.33s-.61.09-.83.28c-.22.18-.38.44-.49.76-.11.32-.16.69-.16,1.12s.05.79.16,1.12c.11.32.27.57.49.76.22.18.5.28.83.28.36,0,.67-.11.91-.33.24-.22.42-.51.53-.85l.82.27c-.18.5-.46.9-.84,1.19-.39.29-.86.43-1.41.43-.5,0-.95-.12-1.34-.36Z"/>
    <path class="st1" d="M895.34,122.2c-.29-.27-.44-.64-.44-1.09,0-.52.17-.92.53-1.19.35-.27.83-.44,1.45-.52.47-.05.92-.09,1.34-.11v-.54c0-.36-.08-.63-.25-.81-.17-.18-.41-.27-.74-.27-.3,0-.56.09-.78.26-.22.18-.38.41-.5.7l-.83-.27c.17-.45.44-.8.82-1.03.38-.23.82-.35,1.33-.35.59,0,1.05.15,1.41.45.35.3.53.74.53,1.32v2.09c0,.4.04.97.1,1.71h-.95c-.06-.38-.1-.72-.1-1.01h.08c-.15.3-.4.55-.74.76-.33.21-.71.32-1.12.32-.48,0-.86-.14-1.16-.41ZM897.61,121.63c.26-.18.47-.41.61-.7v-1.03c-.41.02-.81.05-1.21.12-.36.06-.64.18-.83.36-.19.18-.29.41-.29.7,0,.26.08.46.23.6s.37.22.64.22c.31,0,.59-.09.86-.26Z"/>
    <path class="st1" d="M900.52,117.06h1.02v1.17h-.09c.12-.37.34-.67.66-.92.32-.25.68-.37,1.08-.37.46,0,.84.13,1.13.4.29.27.46.6.5,1.01h-.17c.17-.41.43-.75.78-1.02.35-.26.74-.39,1.17-.39.55,0,.96.17,1.23.5.27.33.41.82.41,1.45v3.64h-1.04v-3.44c0-.44-.07-.78-.2-1.01-.13-.24-.36-.35-.69-.35-.29,0-.57.11-.83.33-.26.22-.45.48-.57.78v3.7h-1.04v-3.44c0-.43-.08-.76-.23-1-.16-.24-.4-.36-.73-.36-.29,0-.55.11-.78.32-.24.21-.42.48-.55.78v3.7h-1.04v-5.47Z"/>
    <path class="st1" d="M910.03,122.33c-.39-.22-.67-.54-.83-.96l.83-.3c.12.29.31.51.56.67.25.16.55.24.91.24.33,0,.6-.08.8-.24.2-.16.3-.36.3-.6s-.09-.43-.27-.56c-.18-.13-.5-.25-.97-.35-.68-.14-1.18-.34-1.5-.6-.32-.26-.48-.62-.48-1.08,0-.31.09-.59.26-.83.17-.24.41-.43.71-.56.3-.13.64-.2,1.01-.2.48,0,.9.1,1.25.3s.61.49.75.86l-.82.29c-.11-.25-.26-.44-.46-.58-.2-.13-.45-.2-.76-.2s-.57.07-.76.22c-.19.15-.28.33-.28.57s.1.4.31.53c.21.12.56.24,1.05.34.66.14,1.13.34,1.42.6s.44.63.44,1.11-.19.88-.57,1.19c-.38.31-.87.46-1.48.46-.56,0-1.04-.11-1.43-.33Z"/>
    <path class="st1" d="M915.19,122.16c-.3-.29-.45-.75-.45-1.39v-2.95h-.85v-.76h.57c.15,0,.25-.04.32-.14.07-.09.11-.27.14-.55l.09-.94h.76v1.62h1.39v.76h-1.39v2.94c0,.38.08.66.23.84.15.18.39.26.71.26.21,0,.4-.02.57-.07v.69c-.08.03-.18.06-.32.08-.14.02-.27.03-.4.03-.62,0-1.09-.14-1.38-.43Z"/>
    <path class="st1" d="M918.49,122.15c-.28-.33-.42-.8-.42-1.39v-3.7h1.04v3.49c0,.44.09.77.27.99.18.22.42.33.74.33.29,0,.57-.11.84-.32.27-.21.47-.47.6-.79v-3.7h1.04v5.47h-1.02v-1.17l.07.12c-.15.33-.4.61-.73.83-.34.23-.72.34-1.16.34-.57,0-1-.17-1.27-.5Z"/>
    <path class="st1" d="M924.76,122.32c-.34-.22-.61-.55-.8-.98-.19-.43-.29-.94-.29-1.54s.11-1.11.32-1.54.5-.76.86-.98c.36-.22.76-.33,1.2-.33.47,0,.87.12,1.2.36.33.24.55.53.66.89l-.16-.02v-3.62h1.04v7.99h-1.01v-1.13h.1c-.17.37-.42.67-.75.9-.33.23-.74.35-1.24.35-.42,0-.79-.11-1.13-.33ZM927.14,121.57c.28-.23.48-.52.61-.86v-1.81c-.09-.36-.27-.66-.54-.89-.27-.23-.59-.35-.96-.35-.46,0-.83.19-1.09.56-.26.38-.39.9-.39,1.57s.12,1.19.38,1.56c.25.37.6.55,1.06.55.35,0,.66-.12.94-.35Z"/>
    <path class="st1" d="M930.14,115.02h1.11v1.25h-1.11v-1.25ZM930.17,117.06h1.04v5.47h-1.04v-5.47Z"/>
    <path class="st1" d="M933.51,122.29c-.4-.24-.71-.57-.93-1s-.33-.93-.33-1.49.11-1.06.33-1.49c.22-.43.53-.76.93-1,.4-.24.85-.36,1.35-.36s.95.12,1.35.36c.4.24.71.57.93,1,.22.43.34.93.34,1.49s-.11,1.06-.34,1.49-.53.77-.93,1c-.4.24-.85.36-1.35.36s-.95-.12-1.35-.36ZM935.99,121.36c.25-.39.38-.91.38-1.56s-.13-1.16-.38-1.56-.63-.59-1.13-.59-.88.2-1.13.59c-.25.4-.38.91-.38,1.56s.13,1.16.38,1.56c.25.4.63.59,1.13.59s.88-.2,1.13-.59Z"/>
    <path class="st1" d="M938.98,122.33c-.39-.22-.67-.54-.83-.96l.83-.3c.12.29.31.51.56.67.25.16.55.24.91.24.33,0,.6-.08.8-.24.2-.16.3-.36.3-.6s-.09-.43-.27-.56c-.18-.13-.5-.25-.97-.35-.68-.14-1.18-.34-1.5-.6-.32-.26-.48-.62-.48-1.08,0-.31.09-.59.26-.83.17-.24.41-.43.71-.56.3-.13.64-.2,1.01-.2.48,0,.9.1,1.25.3s.61.49.75.86l-.82.29c-.11-.25-.26-.44-.46-.58-.2-.13-.45-.2-.76-.2s-.57.07-.76.22c-.19.15-.28.33-.28.57s.1.4.31.53c.21.12.56.24,1.05.34.66.14,1.13.34,1.42.6s.44.63.44,1.11-.19.88-.57,1.19c-.38.31-.87.46-1.48.46-.56,0-1.04-.11-1.43-.33Z"/>
    <path class="st1" d="M943.38,121.22h1.16v1.32h-1.16v-1.32Z"/>
    <path class="st1" d="M946.63,122.29c-.39-.24-.69-.57-.91-1s-.33-.93-.33-1.49.11-1.06.33-1.49c.22-.43.52-.76.91-1,.39-.24.83-.36,1.34-.36.64,0,1.16.18,1.56.53.4.35.64.81.73,1.39h-1.02c-.08-.36-.23-.65-.45-.88-.21-.22-.49-.33-.83-.33s-.61.09-.83.28c-.22.18-.38.44-.49.76-.11.32-.16.69-.16,1.12s.05.79.16,1.12c.11.32.27.57.49.76.22.18.5.28.83.28.36,0,.67-.11.91-.33.24-.22.42-.51.53-.85l.82.27c-.18.5-.46.9-.84,1.19-.39.29-.86.43-1.41.43-.5,0-.95-.12-1.34-.36Z"/>
    <path class="st1" d="M952.21,122.29c-.4-.24-.71-.57-.93-1s-.33-.93-.33-1.49.11-1.06.33-1.49c.22-.43.53-.76.93-1,.4-.24.85-.36,1.35-.36s.95.12,1.35.36c.4.24.71.57.93,1,.22.43.34.93.34,1.49s-.11,1.06-.34,1.49-.53.77-.93,1c-.4.24-.85.36-1.35.36s-.95-.12-1.35-.36ZM954.69,121.36c.25-.39.38-.91.38-1.56s-.13-1.16-.38-1.56-.63-.59-1.13-.59-.88.2-1.13.59c-.25.4-.38.91-.38,1.56s.13,1.16.38,1.56c.25.4.63.59,1.13.59s.88-.2,1.13-.59Z"/>
    <path class="st1" d="M957.21,117.06h1.02v1.17h-.09c.12-.37.34-.67.66-.92.32-.25.68-.37,1.08-.37.46,0,.84.13,1.13.4.29.27.46.6.5,1.01h-.17c.17-.41.43-.75.78-1.02.35-.26.74-.39,1.17-.39.55,0,.96.17,1.23.5.27.33.41.82.41,1.45v3.64h-1.04v-3.44c0-.44-.07-.78-.2-1.01-.13-.24-.36-.35-.69-.35-.29,0-.57.11-.83.33-.26.22-.45.48-.57.78v3.7h-1.04v-3.44c0-.43-.08-.76-.23-1-.16-.24-.4-.36-.73-.36-.29,0-.55.11-.78.32-.24.21-.42.48-.55.78v3.7h-1.04v-5.47Z"/>
  </g>
  <text/>
  <text/>
  <g>
    <path class="st1" d="M864.43,140.18c-.39-.24-.69-.57-.91-1s-.33-.93-.33-1.49.11-1.06.33-1.49c.22-.43.52-.76.91-1,.39-.24.83-.36,1.34-.36.64,0,1.16.18,1.56.53.4.35.64.81.73,1.39h-1.02c-.08-.36-.23-.65-.45-.88-.21-.22-.49-.33-.83-.33s-.61.09-.83.28c-.22.18-.38.44-.49.76-.11.32-.16.69-.16,1.12s.05.79.16,1.12c.11.32.27.57.49.76.22.18.5.28.83.28.36,0,.67-.11.91-.33.24-.22.42-.51.53-.85l.82.27c-.18.5-.46.9-.84,1.19-.39.29-.86.43-1.41.43-.5,0-.95-.12-1.34-.36Z"/>
    <path class="st1" d="M869.26,140.08c-.29-.27-.44-.64-.44-1.09,0-.52.17-.92.53-1.19.35-.27.83-.44,1.45-.52.47-.05.92-.09,1.34-.11v-.54c0-.36-.08-.63-.25-.81-.17-.18-.41-.27-.74-.27-.3,0-.56.09-.78.26-.22.18-.38.41-.5.7l-.83-.27c.17-.45.44-.8.82-1.03.38-.23.82-.35,1.33-.35.59,0,1.05.15,1.41.45.35.3.53.74.53,1.32v2.09c0,.4.04.97.1,1.71h-.95c-.06-.38-.1-.72-.1-1.01h.08c-.15.3-.4.55-.74.76-.33.21-.71.32-1.12.32-.48,0-.86-.14-1.16-.41ZM871.53,139.52c.26-.18.47-.41.61-.7v-1.03c-.41.02-.81.05-1.21.12-.36.06-.64.18-.83.36-.19.18-.29.41-.29.7,0,.26.08.46.23.6s.37.22.64.22c.31,0,.59-.09.86-.26Z"/>
    <path class="st1" d="M874.43,134.95h1.02v1.17h-.09c.12-.37.34-.67.66-.92.32-.25.68-.37,1.08-.37.46,0,.84.13,1.13.4.29.27.46.6.5,1.01h-.17c.17-.41.43-.75.78-1.02.35-.26.74-.39,1.17-.39.55,0,.96.17,1.23.5.27.33.41.82.41,1.45v3.64h-1.04v-3.44c0-.44-.07-.78-.2-1.01-.13-.24-.36-.35-.69-.35-.29,0-.57.11-.83.33-.26.22-.45.48-.57.78v3.7h-1.04v-3.44c0-.43-.08-.76-.23-1-.16-.24-.4-.36-.73-.36-.29,0-.55.11-.78.32-.24.21-.42.48-.55.78v3.7h-1.04v-5.47Z"/>
    <path class="st1" d="M883.44,132.91h1.11v1.25h-1.11v-1.25ZM883.47,134.95h1.04v5.47h-1.04v-5.47Z"/>
    <path class="st1" d="M885.9,132.44h1.04v7.99h-1.04v-7.99Z"/>
    <path class="st1" d="M888.33,132.44h1.04v7.99h-1.04v-7.99Z"/>
    <path class="st1" d="M891.65,140.18c-.39-.24-.69-.57-.91-1s-.33-.93-.33-1.49.11-1.06.33-1.49c.22-.43.52-.76.91-1,.39-.24.83-.36,1.33-.36s.9.11,1.27.33c.37.22.65.52.84.91.2.39.29.83.29,1.32,0,.22,0,.36-.01.43h-4.24v-.66h3.34l-.15.33v-.25c0-.46-.11-.87-.34-1.22s-.57-.52-1.01-.52c-.33,0-.61.09-.83.28-.22.19-.39.45-.5.78-.11.33-.16.7-.16,1.12s.05.79.16,1.11c.11.33.27.58.5.76.22.18.5.28.83.28.37,0,.67-.1.9-.31.23-.2.4-.47.51-.79l.82.27c-.17.46-.45.83-.83,1.11-.38.28-.85.42-1.39.42-.5,0-.95-.12-1.34-.36Z"/>
    <path class="st1" d="M895.78,134.95h1.09l1.66,4.78h-.35l1.64-4.78h.89l-2.05,5.47h-.88l-2-5.47Z"/>
    <path class="st1" d="M902.28,140.18c-.4-.24-.71-.57-.93-1s-.33-.93-.33-1.49.11-1.06.33-1.49c.22-.43.53-.76.93-1,.4-.24.85-.36,1.35-.36s.95.12,1.35.36c.4.24.71.57.93,1,.22.43.34.93.34,1.49s-.11,1.06-.34,1.49-.53.77-.93,1c-.4.24-.85.36-1.35.36s-.95-.12-1.35-.36ZM904.76,139.25c.25-.39.38-.91.38-1.56s-.13-1.16-.38-1.56-.63-.59-1.13-.59-.88.2-1.13.59c-.25.4-.38.91-.38,1.56s.13,1.16.38,1.56c.25.4.63.59,1.13.59s.88-.2,1.13-.59Z"/>
    <path class="st1" d="M908.16,140.18c-.39-.24-.69-.57-.91-1s-.33-.93-.33-1.49.11-1.06.33-1.49c.22-.43.52-.76.91-1,.39-.24.83-.36,1.33-.36s.9.11,1.27.33c.37.22.65.52.84.91.2.39.29.83.29,1.32,0,.22,0,.36-.01.43h-4.24v-.66h3.34l-.15.33v-.25c0-.46-.11-.87-.34-1.22s-.57-.52-1.01-.52c-.33,0-.61.09-.83.28-.22.19-.39.45-.5.78-.11.33-.16.7-.16,1.12s.05.79.16,1.11c.11.33.27.58.5.76.22.18.5.28.83.28.37,0,.67-.1.9-.31.23-.2.4-.47.51-.79l.82.27c-.17.46-.45.83-.83,1.11-.38.28-.85.42-1.39.42-.5,0-.95-.12-1.34-.36Z"/>
    <path class="st1" d="M912.91,132.44h1.04v7.99h-1.04v-7.99Z"/>
    <path class="st1" d="M915.34,132.44h1.04v7.99h-1.04v-7.99ZM916.1,137.88l2.53-2.92h1.17l-2.34,2.44-1.37,1.44v-.96ZM917.12,137.24l.8-.43,1.99,3.62h-1.17l-1.62-3.18Z"/>
    <path class="st1" d="M922.25,141.49c-.57-.3-1.02-.74-1.34-1.31-.32-.57-.49-1.25-.49-2.03,0-.94.2-1.78.6-2.52s.95-1.32,1.64-1.73,1.46-.62,2.3-.62c.65,0,1.25.14,1.8.42.56.28,1,.68,1.34,1.22.34.54.5,1.18.5,1.92,0,.61-.09,1.15-.28,1.63s-.44.84-.75,1.1-.65.39-1.02.39-.68-.11-.91-.34c-.23-.23-.34-.56-.34-1,0-.12.02-.23.02-.34h.15c-.15.52-.36.94-.65,1.23-.29.3-.63.45-1.02.45s-.71-.15-.97-.44c-.26-.29-.39-.7-.39-1.2s.1-.99.31-1.45c.21-.46.48-.83.83-1.1.34-.28.71-.42,1.09-.42.29,0,.54.09.73.26.2.17.32.37.36.59h-.09l.42-.79h.57l-.43,2.74c-.03.2-.05.39-.05.58,0,.25.04.44.12.56.08.12.19.18.35.18.22,0,.42-.11.62-.34.2-.23.36-.54.49-.93.12-.39.18-.82.18-1.29,0-.67-.13-1.23-.4-1.69-.27-.46-.63-.8-1.08-1.03-.46-.23-.97-.35-1.54-.35-.69,0-1.33.19-1.91.56-.58.38-1.04.89-1.38,1.54-.34.65-.51,1.38-.51,2.18,0,.65.13,1.22.38,1.72s.62.88,1.09,1.16c.47.27,1.03.41,1.66.41.34,0,.66-.04.96-.11.3-.07.57-.17.82-.29l.19.5c-.28.14-.58.25-.9.33s-.69.12-1.1.12c-.73,0-1.38-.15-1.96-.45ZM924.56,139.14c.18-.15.33-.37.47-.65.13-.28.24-.59.31-.95l.18-.95c-.02-.23-.09-.41-.21-.55-.13-.14-.29-.21-.5-.21-.26,0-.5.13-.72.39-.22.26-.4.59-.53.99s-.2.77-.2,1.13c0,.31.06.56.18.75.12.18.28.28.49.28.18,0,.35-.08.53-.23Z"/>
    <path class="st1" d="M930.44,142.22c-.43-.32-.69-.76-.78-1.32h1.02c.08.35.24.62.46.81s.53.28.93.28c.46,0,.81-.14,1.06-.41.25-.27.38-.66.38-1.15v-1.29h.12c-.16.36-.41.66-.74.89-.33.24-.75.35-1.25.35-.42,0-.79-.11-1.13-.32-.34-.21-.61-.53-.8-.95-.19-.42-.29-.92-.29-1.5s.1-1.09.31-1.51.49-.74.84-.95c.35-.21.75-.32,1.18-.32.49,0,.89.12,1.23.35.33.23.56.52.67.86h-.15l.21-1.09h.81v5.37c0,.74-.22,1.32-.65,1.74s-1.03.64-1.79.64c-.66,0-1.2-.16-1.63-.48ZM932.88,139.33c.28-.24.48-.53.61-.88v-1.68c-.09-.35-.27-.64-.54-.88-.27-.23-.59-.35-.96-.35-.46,0-.83.18-1.09.55-.26.36-.39.87-.39,1.52s.12,1.16.38,1.52.6.55,1.06.55c.35,0,.66-.12.94-.36Z"/>
    <path class="st1" d="M935.88,134.95h1.02v1.17h-.09c.12-.37.34-.67.66-.92.32-.25.68-.37,1.08-.37.46,0,.84.13,1.13.4.29.27.46.6.5,1.01h-.17c.17-.41.43-.75.78-1.02.35-.26.74-.39,1.17-.39.55,0,.96.17,1.23.5.27.33.41.82.41,1.45v3.64h-1.04v-3.44c0-.44-.07-.78-.2-1.01-.13-.24-.36-.35-.69-.35-.29,0-.57.11-.83.33-.26.22-.45.48-.57.78v3.7h-1.04v-3.44c0-.43-.08-.76-.23-1-.16-.24-.4-.36-.73-.36-.29,0-.55.11-.78.32-.24.21-.42.48-.55.78v3.7h-1.04v-5.47Z"/>
    <path class="st1" d="M945.08,140.08c-.29-.27-.44-.64-.44-1.09,0-.52.17-.92.53-1.19.35-.27.83-.44,1.45-.52.47-.05.92-.09,1.34-.11v-.54c0-.36-.08-.63-.25-.81-.17-.18-.41-.27-.74-.27-.3,0-.56.09-.78.26-.22.18-.38.41-.5.7l-.83-.27c.17-.45.44-.8.82-1.03.38-.23.82-.35,1.33-.35.59,0,1.05.15,1.41.45.35.3.53.74.53,1.32v2.09c0,.4.04.97.1,1.71h-.95c-.06-.38-.1-.72-.1-1.01h.08c-.15.3-.4.55-.74.76-.33.21-.71.32-1.12.32-.48,0-.86-.14-1.16-.41ZM947.35,139.52c.26-.18.47-.41.61-.7v-1.03c-.41.02-.81.05-1.21.12-.36.06-.64.18-.83.36-.19.18-.29.41-.29.7,0,.26.08.46.23.6s.37.22.64.22c.31,0,.59-.09.86-.26Z"/>
    <path class="st1" d="M950.22,132.91h1.11v1.25h-1.11v-1.25ZM950.25,134.95h1.04v5.47h-1.04v-5.47Z"/>
    <path class="st1" d="M952.68,132.44h1.04v7.99h-1.04v-7.99Z"/>
    <path class="st1" d="M955,139.11h1.16v1.32h-1.16v-1.32Z"/>
    <path class="st1" d="M958.25,140.18c-.39-.24-.69-.57-.91-1s-.33-.93-.33-1.49.11-1.06.33-1.49c.22-.43.52-.76.91-1,.39-.24.83-.36,1.34-.36.64,0,1.16.18,1.56.53.4.35.64.81.73,1.39h-1.02c-.08-.36-.23-.65-.45-.88-.21-.22-.49-.33-.83-.33s-.61.09-.83.28c-.22.18-.38.44-.49.76-.11.32-.16.69-.16,1.12s.05.79.16,1.12c.11.32.27.57.49.76.22.18.5.28.83.28.36,0,.67-.11.91-.33.24-.22.42-.51.53-.85l.82.27c-.18.5-.46.9-.84,1.19-.39.29-.86.43-1.41.43-.5,0-.95-.12-1.34-.36Z"/>
    <path class="st1" d="M963.83,140.18c-.4-.24-.71-.57-.93-1s-.33-.93-.33-1.49.11-1.06.33-1.49c.22-.43.53-.76.93-1,.4-.24.85-.36,1.35-.36s.95.12,1.35.36c.4.24.71.57.93,1,.22.43.34.93.34,1.49s-.11,1.06-.34,1.49-.53.77-.93,1c-.4.24-.85.36-1.35.36s-.95-.12-1.35-.36ZM966.31,139.25c.25-.39.38-.91.38-1.56s-.13-1.16-.38-1.56-.63-.59-1.13-.59-.88.2-1.13.59c-.25.4-.38.91-.38,1.56s.13,1.16.38,1.56c.25.4.63.59,1.13.59s.88-.2,1.13-.59Z"/>
    <path class="st1" d="M968.82,134.95h1.02v1.17h-.09c.12-.37.34-.67.66-.92.32-.25.68-.37,1.08-.37.46,0,.84.13,1.13.4.29.27.46.6.5,1.01h-.17c.17-.41.43-.75.78-1.02.35-.26.74-.39,1.17-.39.55,0,.96.17,1.23.5.27.33.41.82.41,1.45v3.64h-1.04v-3.44c0-.44-.07-.78-.2-1.01-.13-.24-.36-.35-.69-.35-.29,0-.57.11-.83.33-.26.22-.45.48-.57.78v3.7h-1.04v-3.44c0-.43-.08-.76-.23-1-.16-.24-.4-.36-.73-.36-.29,0-.55.11-.78.32-.24.21-.42.48-.55.78v3.7h-1.04v-5.47Z"/>
  </g>
  <g>
    <path class="st1" d="M866.89,158.28c.62-.56,1.07-1.06,1.33-1.48.26-.42.39-.87.39-1.34,0-.44-.12-.8-.35-1.09-.24-.29-.56-.43-.97-.43-.46,0-.84.15-1.17.45-.32.3-.56.71-.72,1.23l-.93-.26c.21-.68.56-1.21,1.05-1.58.49-.38,1.08-.56,1.77-.56.46,0,.87.09,1.23.28.36.18.64.44.83.78.2.34.29.74.29,1.2s-.08.84-.25,1.19c-.17.35-.4.68-.71,1-.3.32-.75.72-1.32,1.21-.53.46-1.27,1.07-2.21,1.83v-.27h4.77v.88h-5.45v-.87c.81-.71,1.61-1.43,2.41-2.16Z"/>
    <path class="st1" d="M872.37,160.92c-.45-.33-.79-.81-1.03-1.43s-.36-1.35-.36-2.18.12-1.57.36-2.18.58-1.09,1.03-1.43.98-.5,1.6-.5,1.15.17,1.6.5.79.81,1.02,1.43.35,1.35.35,2.18-.12,1.57-.35,2.18-.58,1.09-1.02,1.43-.98.5-1.6.5-1.15-.17-1.6-.5ZM875.37,159.79c.32-.61.47-1.43.47-2.47s-.16-1.87-.47-2.47c-.32-.61-.78-.91-1.4-.91s-1.09.3-1.41.91c-.32.61-.48,1.43-.48,2.47s.16,1.87.48,2.47c.32.61.79.91,1.41.91s1.08-.3,1.4-.91Z"/>
    <path class="st1" d="M878.74,160.42c-.52-.67-.78-1.65-.78-2.94,0-.91.12-1.68.36-2.32.24-.64.59-1.12,1.03-1.46.44-.33.97-.5,1.57-.5s1.12.14,1.57.41c.44.27.77.67.97,1.2l-.91.38c-.14-.37-.35-.67-.62-.9-.27-.23-.61-.35-1-.35s-.73.13-1.02.39c-.29.26-.5.64-.66,1.13s-.23,1.1-.23,1.8v.18l-.19.07c.15-.2.35-.39.58-.57s.5-.32.81-.43.62-.16.96-.16c.46,0,.87.1,1.24.29.37.19.66.47.87.84.21.37.32.81.32,1.33,0,.49-.11.93-.33,1.33-.22.4-.53.72-.94.95-.41.23-.89.35-1.44.35-.92,0-1.64-.33-2.16-1ZM881.81,160.46c.25-.16.44-.38.58-.66.13-.28.2-.6.2-.94,0-.52-.14-.94-.43-1.26-.29-.33-.68-.49-1.19-.49-.26,0-.53.05-.79.15-.26.1-.51.23-.73.41-.22.17-.42.37-.58.59l.15-.74v.38c0,.56.07,1.05.22,1.47s.36.76.65.99c.29.23.62.35,1.02.35.35,0,.65-.08.9-.24Z"/>
    <path class="st1" d="M884.65,159.99h1.16v1.32h-1.16v-1.32Z"/>
    <path class="st1" d="M887.98,161.01c-.44-.27-.75-.67-.95-1.2l.91-.38c.14.37.34.67.61.9.27.23.6.35.99.35s.73-.13,1.02-.39c.29-.26.5-.64.66-1.13s.23-1.1.23-1.8v-.18l.19-.07c-.15.21-.35.41-.58.58-.24.18-.5.32-.81.43s-.62.16-.96.16c-.46,0-.87-.1-1.24-.29-.37-.19-.66-.47-.87-.85-.21-.37-.32-.82-.32-1.33,0-.49.11-.93.33-1.33s.53-.72.94-.95c.41-.23.89-.35,1.44-.35.61,0,1.13.15,1.57.44.44.29.78.74,1.01,1.33.24.59.35,1.32.35,2.18,0,.91-.12,1.68-.36,2.33s-.58,1.13-1.03,1.46c-.45.33-.97.49-1.57.49s-1.12-.14-1.56-.41ZM890.27,157.39c.26-.1.51-.23.73-.41.22-.18.42-.37.58-.59l-.15.74v-.38c0-.85-.17-1.54-.5-2.05-.33-.51-.79-.77-1.39-.77-.35,0-.65.08-.9.24-.25.16-.44.38-.58.66-.13.28-.2.6-.2.94,0,.52.14.94.43,1.27.29.33.68.49,1.19.49.26,0,.52-.05.79-.15Z"/>
    <path class="st1" d="M894.67,154.4l.52.82h-2.04v-.74c.39,0,.72-.04.99-.12.27-.08.47-.2.62-.37.15-.17.24-.39.27-.67h.67v7.99h-1.04v-6.91Z"/>
    <path class="st1" d="M898.26,160.94c-.51-.32-.87-.79-1.08-1.41l.95-.33c.15.45.4.82.75,1.09.35.27.77.41,1.27.41.35,0,.65-.07.91-.21.26-.14.46-.34.61-.6.14-.26.21-.55.21-.88,0-.49-.15-.87-.45-1.13-.3-.26-.73-.39-1.29-.39h-.74v-.75h.74c.47,0,.83-.13,1.08-.38.25-.25.37-.6.37-1.03,0-.41-.12-.74-.38-1-.25-.26-.6-.39-1.04-.39s-.85.14-1.18.43c-.33.29-.58.66-.74,1.12l-.93-.27c.25-.65.61-1.15,1.09-1.49s1.08-.52,1.79-.52c.48,0,.9.09,1.26.26.36.17.64.42.84.73.2.31.3.68.3,1.09,0,.37-.08.7-.24.99-.16.29-.38.52-.68.69-.29.17-.64.25-1.04.25v-.19c.69.03,1.24.21,1.65.52.4.32.61.8.61,1.45,0,.49-.12.92-.35,1.29s-.56.65-.98.85c-.42.2-.9.29-1.43.29-.75,0-1.38-.16-1.89-.48Z"/>
    <path class="st1" d="M903.93,159.99h1.16v1.32h-1.16v-1.32Z"/>
    <path class="st1" d="M907.48,161.15c-.44-.18-.78-.44-1.02-.78-.24-.34-.36-.72-.36-1.16,0-.54.17-.99.5-1.36.33-.36.78-.63,1.35-.79l.61.29c-.46.14-.82.36-1.07.65-.25.29-.38.66-.38,1.11,0,.3.07.57.22.81.15.24.36.43.65.58.29.14.62.21,1.02.21.59,0,1.04-.13,1.35-.4.31-.27.47-.6.47-1.01,0-.38-.13-.68-.39-.93-.26-.24-.74-.49-1.42-.73-.86-.31-1.51-.64-1.94-1-.43-.36-.64-.83-.64-1.4,0-.39.11-.74.34-1.06.22-.31.53-.56.93-.73.39-.17.84-.26,1.33-.26s.94.08,1.33.25c.38.17.68.4.89.7.21.3.31.65.31,1.04,0,.46-.16.88-.47,1.24s-.73.62-1.24.76l-.57-.28c.4-.12.72-.34.94-.63.23-.3.34-.63.34-1,0-.4-.14-.72-.41-.97-.27-.25-.65-.38-1.12-.38-.31,0-.58.05-.83.15-.24.1-.43.24-.57.42-.13.18-.2.39-.2.62,0,.38.16.7.48.95.32.25.84.5,1.57.76.54.2.98.4,1.33.6.34.2.6.45.78.73.18.28.27.62.27,1.02,0,.45-.12.84-.35,1.18s-.56.6-.99.79c-.43.19-.93.28-1.5.28s-1.09-.09-1.53-.28Z"/>
    <path class="st1" d="M915.21,158.28c.62-.56,1.07-1.06,1.33-1.48.26-.42.39-.87.39-1.34,0-.44-.12-.8-.35-1.09-.24-.29-.56-.43-.97-.43-.46,0-.84.15-1.17.45-.32.3-.56.71-.72,1.23l-.93-.26c.21-.68.56-1.21,1.05-1.58.49-.38,1.08-.56,1.77-.56.46,0,.87.09,1.23.28.36.18.64.44.83.78.2.34.29.74.29,1.2s-.08.84-.25,1.19c-.17.35-.4.68-.71,1-.3.32-.75.72-1.32,1.21-.53.46-1.27,1.07-2.21,1.83v-.27h4.77v.88h-5.45v-.87c.81-.71,1.61-1.43,2.41-2.16Z"/>
    <path class="st1" d="M920.35,160.97c-.49-.3-.83-.74-1.04-1.3l.93-.34c.15.43.39.77.71,1.01.32.24.71.36,1.17.36.33,0,.62-.08.87-.24.25-.16.45-.39.59-.67.14-.29.21-.62.21-1,0-.57-.15-1.02-.45-1.35s-.71-.49-1.24-.49c-.33,0-.64.06-.94.19-.29.13-.56.31-.79.53l-.73-.29.44-4.05h4.26v.88h-3.89l.38-.33-.33,3.12-.1-.06c.22-.22.49-.4.83-.54.34-.14.7-.21,1.08-.21.52,0,.96.11,1.34.32.38.21.67.51.87.9.2.39.3.84.3,1.37s-.12.96-.35,1.37-.55.72-.96.95c-.41.23-.88.34-1.4.34-.69,0-1.28-.15-1.76-.46Z"/>
    <path class="st1" d="M926.95,160.97c-.49-.3-.83-.74-1.04-1.3l.93-.34c.15.43.39.77.71,1.01.32.24.71.36,1.17.36.33,0,.62-.08.87-.24.25-.16.45-.39.59-.67.14-.29.21-.62.21-1,0-.57-.15-1.02-.45-1.35s-.71-.49-1.24-.49c-.33,0-.64.06-.94.19-.29.13-.56.31-.79.53l-.73-.29.44-4.05h4.26v.88h-3.89l.38-.33-.33,3.12-.1-.06c.22-.22.49-.4.83-.54.34-.14.7-.21,1.08-.21.52,0,.96.11,1.34.32.38.21.67.51.87.9.2.39.3.84.3,1.37s-.12.96-.35,1.37-.55.72-.96.95c-.41.23-.88.34-1.4.34-.69,0-1.28-.15-1.76-.46Z"/>
  </g>
  <path class="st1" d="M854.26,98.62c0,.54-.43.97-.96.97s-.96-.44-.96-.97.43-.97.96-.97.96.44.96.97ZM855.67,101.03l-2.37,2.35-2.37-2.35c-1.31-1.33-1.31-3.48,0-4.81,1.31-1.33,3.43-1.33,4.74,0,1.31,1.33,1.31,3.48,0,4.81,0,0,0,0,0,0h0ZM855.22,98.62c0-1.07-.86-1.94-1.92-1.94s-1.92.87-1.92,1.94.86,1.94,1.92,1.94,1.92-.87,1.92-1.94ZM858.02,100.38l-.69-.23c-.21.59-.55,1.13-.99,1.57l-3.05,3.03-3.04-3.01c-.58-.58-.98-1.32-1.16-2.12-.78-.07-1.47.51-1.55,1.3,0,.05,0,.09,0,.14v4.74l3.82,1.11,3.84-.97,3.83.95v-5.1c0-.64-.42-1.21-1.02-1.4h0Z"/>
  <g>
    <path class="st1" d="M852.15,137.61c.56.56,1.45.56,2.01,0l4.57-4.64c-.22-.55-.74-.9-1.32-.91h-8.52c-.58,0-1.1.36-1.32.91l4.57,4.64Z"/>
    <path class="st1" d="M854.83,138.29c-.92.94-2.42.94-3.35,0l-4-4.06v8.4h11.36v-8.4l-4,4.06Z"/>
  </g>
  <path class="st1" d="M856.27,158.59l3.19,3.24-1.61,1.64c-.57.57-1.34.89-2.14.89-3.69,0-8.4-4.78-8.4-8.52,0-.81.31-1.6.87-2.17l1.61-1.64,3.19,3.24-2.1,2.13c.62,1.51,1.8,2.7,3.28,3.34l2.1-2.13ZM858.5,157.12h1.02c0-2.85-2.28-5.16-5.09-5.17v1.03c2.25,0,4.07,1.85,4.07,4.13ZM856.47,157.12h1.02c0-1.71-1.37-3.1-3.05-3.1v1.03c1.12,0,2.04.92,2.04,2.07Z"/>
  <path class="st1" d="M853.09,113.19c-3.27,0-5.92,2.69-5.92,6.01s2.65,6.01,5.92,6.01,5.92-2.69,5.92-6.01c0-3.32-2.65-6.01-5.92-6.01ZM857.36,116.7h-1.59c-.36-.84-.83-1.63-1.4-2.33,1.26.35,2.34,1.19,2.99,2.33ZM855.31,119.2c0,.51-.08,1.02-.23,1.5h-3.98c-.15-.49-.23-.99-.23-1.5,0-.51.08-1.02.23-1.5h3.98c.15.49.23.99.23,1.5ZM851.49,121.71h3.19c-.42.84-.96,1.61-1.59,2.3-.64-.68-1.17-1.46-1.59-2.3ZM851.49,116.7c.42-.84.96-1.61,1.59-2.3.64.68,1.17,1.46,1.59,2.3h-3.19ZM851.8,114.36c-.57.71-1.04,1.49-1.4,2.33h-1.59c.65-1.15,1.73-1.99,2.99-2.33ZM848.38,117.7h1.69c-.26.99-.26,2.02,0,3.01h-1.69c-.3-.98-.3-2.03,0-3.01ZM848.81,121.71h1.59c.36.84.83,1.63,1.4,2.33-1.26-.35-2.34-1.19-2.99-2.33ZM854.37,124.04c.57-.71,1.04-1.49,1.4-2.33h1.59c-.65,1.15-1.73,1.99-2.99,2.33ZM857.8,120.71h-1.69c.26-.99.26-2.02,0-3.01h1.69c.3.98.3,2.03,0,3.01Z"/>
</svg>